<svg xmlns="http://www.w3.org/2000/svg" width="128" height="128" viewBox="0 0 128 128">
  <!-- Background -->
  <rect width="128" height="128" rx="24" fill="#000000"/>
  
  <!-- Open Book -->
  <path d="M64 35 L64 95" stroke="#ffffff" stroke-width="3" stroke-linecap="round"/>
  <path d="M64 35 C50 35 30 40 25 45 L25 90 C30 85 50 82 64 82" fill="none" stroke="#ffffff" stroke-width="3" stroke-linecap="round" stroke-linejoin="round"/>
  <path d="M64 35 C78 35 98 40 103 45 L103 90 C98 85 78 82 64 82" fill="none" stroke="#ffffff" stroke-width="3" stroke-linecap="round" stroke-linejoin="round"/>
  
  <!-- Reading Glasses -->
  <ellipse cx="48" cy="62" rx="12" ry="10" fill="none" stroke="#ffffff" stroke-width="2.5"/>
  <ellipse cx="80" cy="62" rx="12" ry="10" fill="none" stroke="#ffffff" stroke-width="2.5"/>
  <path d="M60 62 L68 62" stroke="#ffffff" stroke-width="2.5" stroke-linecap="round"/>
  <path d="M36 58 L28 52" stroke="#ffffff" stroke-width="2.5" stroke-linecap="round"/>
  <path d="M92 58 L100 52" stroke="#ffffff" stroke-width="2.5" stroke-linecap="round"/>
</svg>
